# xmcd CD database file
#
# Track frame offsets:
#	150
#	21813
#	33751
#	47620
#	70647
#	97564
#	113371
#	129792
#	149185
#	173671
#	200480
#	220423
#	236046
#	247996
#
# Disc length: 3590 seconds
#
# Revision: 0
# Processed by: cddbd v1.5.2PL0 Copyright (c) Steve Scherf et al.
# Submitted via: CDex 1.70beta2
#
DISCID=b10e040e
DTITLE=Almost Jazz - Livin' In Pai
DYEAR=2008
DGENRE=Jazz
TTITLE0=Stormy
TTITLE1=Sabai Sabai
TTITLE2=Living Here In Pai
TTITLE3=Burma Blues
TTITLE4=Ocean Is A Lady
TTITLE5=SameSame But Different
TTITLE6=Chiang Mai City
TTITLE7=Bangkok Kid
TTITLE8=Living In Paradise
TTITLE9=More Time
TTITLE10=Hill Tribe Woman
TTITLE11=Life was Easy
TTITLE12=River Corner Blues
TTITLE13=Come On And Be Free
EXTD=YEAR: 2008
EXTT0=
EXTT1=
EXTT2=
EXTT3=
EXTT4=
EXTT5=
EXTT6=
EXTT7=
EXTT8=
EXTT9=
EXTT10=
EXTT11=
EXTT12=
EXTT13=
PLAYORDER=
